<svg width="22" height="16" viewBox="0 0 22 16" fill="none" xmlns="http://www.w3.org/2000/svg">
<g clip-path="url(#clip0_914_10306)">
<g clip-path="url(#clip1_914_10306)">
<rect width="22" height="16" rx="2" fill="#1A47B8"/>
<path d="M19.9048 0H2.09524C0.93807 0 0 0.955126 0 2.13333V13.8667C0 15.0449 0.93807 16 2.09524 16H19.9048C21.0619 16 22 15.0449 22 13.8667V2.13333C22 0.955126 21.0619 0 19.9048 0Z" fill="#1A47B8"/>
<path opacity="0.5" fill-rule="evenodd" clip-rule="evenodd" d="M4.19043 12.2666L5.23805 11.7333L5.76186 10.6666L6.28567 11.7333L7.33329 12.2666L6.28567 12.8L5.76186 13.8666L5.23805 12.8L4.19043 12.2666ZM14.6666 3.19995V4.26662H15.7142V3.19995H14.6666ZM17.8095 4.26662V5.33328H18.8571V4.26662H17.8095ZM13.619 6.39995V7.46662H14.6666V6.39995H13.619ZM16.7619 7.46662V8.53328H17.8095V7.46662H16.7619ZM15.7142 10.6666V11.7333H16.7619V10.6666H15.7142Z" fill="white"/>
<path d="M9.4288 1.06665H2.09547C1.51689 1.06665 1.04785 1.54421 1.04785 2.13332V7.46665C1.04785 8.05575 1.51689 8.53332 2.09547 8.53332H9.4288C10.0074 8.53332 10.4764 8.05575 10.4764 7.46665V2.13332C10.4764 1.54421 10.0074 1.06665 9.4288 1.06665Z" fill="white"/>
<path fill-rule="evenodd" clip-rule="evenodd" d="M5.23807 5.3333H2.09521V4.26663H5.23807V2.1333H6.28569V4.26663H9.42855V5.3333H6.28569V7.46663H5.23807V5.3333ZM7.85712 6.39997V7.46663H9.42855V6.39997H7.85712ZM7.85712 2.1333V3.19997H9.42855V2.1333H7.85712ZM2.09521 6.39997V7.46663H3.66664V6.39997H2.09521ZM2.09521 2.1333V3.19997H3.66664V2.1333H2.09521Z" fill="#F93939"/>
</g>
</g>
<defs>
<clipPath id="clip0_914_10306">
<rect width="22" height="16" fill="white"/>
</clipPath>
<clipPath id="clip1_914_10306">
<rect width="22" height="16" rx="2" fill="white"/>
</clipPath>
</defs>
</svg>
