<svg width="24" height="24" viewBox="0 0 24 24" fill="none" xmlns="http://www.w3.org/2000/svg">
<path d="M12.3282 3C11.5948 3.00276 10.8923 3.28021 10.3737 3.7719C9.85516 4.26358 9.56253 4.92966 9.55961 5.625C9.55961 7.0665 10.8079 8.25 12.3282 8.25C13.8486 8.25 15.0968 7.0665 15.0968 5.625C15.0968 4.1835 13.8486 3 12.3282 3ZM12.3282 4.5C12.9927 4.5 13.5147 4.995 13.5147 5.625C13.5147 6.255 12.9927 6.75 12.3282 6.75C11.6637 6.75 11.1417 6.255 11.1417 5.625C11.1417 4.995 11.6637 4.5 12.3282 4.5ZM9.4109 8.4375C9.00352 8.46975 8.62304 8.655 8.34855 8.9535L6.91443 10.5225C6.72337 10.7283 6.5951 10.9795 6.54343 11.2492L6.14805 13.3643C6.06678 13.799 6.35855 14.2156 6.79486 14.2879C7.2186 14.3581 7.62067 14.0766 7.69962 13.6544L7.99621 12.0682C8.06468 11.702 8.23406 11.3622 8.48526 11.0872L9.52146 9.95243C9.53014 9.94292 9.54243 9.9375 9.55531 9.9375C9.55817 9.9375 9.56103 9.93777 9.56384 9.9383L9.61064 9.94716C9.91976 10.0057 10.1179 10.3099 10.0466 10.6163L9.23846 14.0858C9.19189 14.2919 9.19207 14.5051 9.23898 14.7112C9.28589 14.9173 9.37847 15.1116 9.51057 15.2812L13.6517 20.6951C13.7987 20.8873 14.0269 21 14.2688 21C14.912 21 15.2766 20.2632 14.8865 19.7518L11.3666 15.1381C11.0052 14.6644 10.8738 14.0543 11.0082 13.4738L11.6827 10.5613C11.7119 10.4353 11.8353 10.3548 11.9624 10.379C12.0506 10.3957 12.1222 10.4602 12.1481 10.5461L12.6992 12.375C12.7686 12.5986 12.8917 12.8039 13.0589 12.9747C13.226 13.1456 13.4327 13.2774 13.6627 13.3597L15.7625 14.1168C16.1484 14.2559 16.5747 14.0614 16.7225 13.6788C16.8749 13.2846 16.6738 12.8421 16.2765 12.6975L15.1349 12.2822C14.5655 12.075 14.125 11.6143 13.9436 11.0361L13.6136 9.984C13.535 9.71891 13.3801 9.47982 13.1662 9.29356C12.9522 9.10731 12.6878 8.98124 12.4026 8.9295L9.83173 8.46075C9.6934 8.43553 9.55138 8.42771 9.4109 8.4375ZM9.94022 17.6462C9.62014 17.1973 8.92223 17.322 8.77746 17.854C8.75541 17.9351 8.71793 18.0111 8.66709 18.078L7.39562 19.7502C7.00587 20.2628 7.37144 21 8.01537 21C8.25645 21 8.48392 20.8883 8.63136 20.6976L10.134 18.7536C10.1954 18.6742 10.2385 18.5822 10.2603 18.4841C10.3022 18.2953 10.262 18.0976 10.1497 17.9401L9.94022 17.6462Z" fill="#1A1814"/>
</svg>
