<svg width="20" height="20" viewBox="0 0 20 20" fill="none" xmlns="http://www.w3.org/2000/svg">
<path d="M6.66667 10.8333V14.1667M13.3333 4.16667V4.58333C13.3333 5.02536 13.5089 5.44928 13.8215 5.76184C14.134 6.07441 14.558 6.25 15 6.25C15.442 6.25 15.866 6.42559 16.1785 6.73816C16.4911 7.05072 16.6667 7.47464 16.6667 7.91667V8.33333M2.5 2.5L17.5 17.5M14.1667 10.8333H16.6667C16.8877 10.8333 17.0996 10.9211 17.2559 11.0774C17.4122 11.2337 17.5 11.4457 17.5 11.6667V13.3333C17.5 13.5667 17.4042 13.7775 17.25 13.9283M14.1667 14.1667H3.33333C3.11232 14.1667 2.90036 14.0789 2.74408 13.9226C2.5878 13.7663 2.5 13.5543 2.5 13.3333V11.6667C2.5 11.4457 2.5878 11.2337 2.74408 11.0774C2.90036 10.9211 3.11232 10.8333 3.33333 10.8333H10.8333" stroke="#1A1814" stroke-width="2" stroke-linecap="round" stroke-linejoin="round"/>
</svg>
